<svg width="16" height="19" viewBox="0 0 16 19" fill="none" xmlns="http://www.w3.org/2000/svg">
<g clip-path="url(#clip0_10761_3954)">
<path d="M15.2427 6.48237C13.9767 7.26473 13.1947 8.60591 13.1947 10.0961C13.1947 11.7726 14.2001 13.3 15.7268 13.9334C15.4289 14.902 14.9821 15.7961 14.4235 16.6157C13.6043 17.7706 12.7479 18.9628 11.4818 18.9628C10.2157 18.9628 9.84336 18.2177 8.35388 18.2177C6.90163 18.2177 6.38031 19.0001 5.18873 19.0001C3.99714 19.0001 3.17793 17.9197 2.247 16.5785C1.01818 14.7157 0.310675 12.5549 0.273438 10.2824C0.273438 6.59414 2.65661 4.61962 5.03978 4.61962C6.30584 4.61962 7.34848 5.43923 8.13046 5.43923C8.8752 5.43923 10.0668 4.58237 11.4818 4.58237C12.9713 4.54511 14.3863 5.25296 15.2427 6.48237ZM10.8115 3.01766C11.4446 2.27256 11.7797 1.34118 11.8169 0.37255C11.8169 0.260785 11.8169 0.111765 11.7797 0C10.6998 0.111765 9.69441 0.633335 8.98691 1.45295C8.35388 2.16079 7.98151 3.05491 7.94427 4.02354C7.94427 4.13531 7.94427 4.24707 7.98151 4.35884C8.05598 4.35884 8.16769 4.39609 8.24217 4.39609C9.24757 4.32158 10.1785 3.80001 10.8115 3.01766Z" fill="black"/>
</g>
<defs>
<clipPath id="clip0_10761_3954">
<rect width="15.4534" height="19.0001" fill="white" transform="translate(0.273438)"/>
</clipPath>
</defs>
</svg>
