<svg width="22" height="21" viewBox="0 0 22 21" fill="none" xmlns="http://www.w3.org/2000/svg">
<path d="M20.24 10.7188C20.24 10.0362 20.1788 9.38 20.065 8.75H11V12.4731H16.18C15.9569 13.6762 15.2788 14.6956 14.2594 15.3781V17.7931H17.37C19.19 16.1175 20.24 13.65 20.24 10.7188Z" fill="#4285F4"/>
<path d="M10.9997 20.125C13.5984 20.125 15.7772 19.2631 17.3697 17.7931L14.2591 15.3781C13.3972 15.9556 12.2947 16.2969 10.9997 16.2969C8.49281 16.2969 6.37094 14.6037 5.61406 12.3287H2.39844V14.8225C3.98219 17.9681 7.23719 20.125 10.9997 20.125Z" fill="#34A853"/>
<path d="M5.61438 12.3287C5.42188 11.7512 5.3125 11.1344 5.3125 10.5C5.3125 9.86562 5.42188 9.24874 5.61438 8.67124V6.17749H2.39875C1.725 7.51874 1.37441 8.99903 1.375 10.5C1.375 12.0531 1.74688 13.5231 2.39875 14.8225L5.61438 12.3287Z" fill="#FBBC05"/>
<path d="M10.9997 4.70312C12.4128 4.70312 13.6816 5.18875 14.6791 6.1425L17.4397 3.38188C15.7728 1.82875 13.5941 0.875 10.9997 0.875C7.23719 0.875 3.98219 3.03187 2.39844 6.1775L5.61406 8.67125C6.37094 6.39625 8.49281 4.70312 10.9997 4.70312Z" fill="#EA4335"/>
</svg>
