<svg width="30" height="31" viewBox="0 0 30 31" fill="none" xmlns="http://www.w3.org/2000/svg">
<g clip-path="url(#clip0_10674_1244)">
<path d="M8.78763 0.280688C7.19163 0.355988 6.10172 0.610688 5.14892 0.985088C4.16282 1.36939 3.32702 1.88509 2.49542 2.71969C1.66382 3.55429 1.15172 4.39069 0.770124 5.37829C0.400824 6.33319 0.150624 7.42399 0.0801243 9.02089C0.00962433 10.6178 -0.00597568 11.1311 0.00182432 15.2045C0.00962432 19.2779 0.0276243 19.7885 0.105024 21.3887C0.181224 22.9844 0.435024 24.074 0.809424 25.0271C1.19432 26.0132 1.70942 26.8487 2.54432 27.6806C3.37922 28.5125 4.21502 29.0234 5.20502 29.4056C6.15902 29.7743 7.25012 30.0257 8.84672 30.0956C10.4433 30.1655 10.9572 30.1817 15.0294 30.1739C19.1016 30.1661 19.6143 30.1481 21.2142 30.0722C22.8141 29.9963 23.898 29.7407 24.8514 29.3681C25.8375 28.9823 26.6736 28.4681 27.5049 27.6329C28.3362 26.7977 28.848 25.9607 29.2293 24.9725C29.5989 24.0185 29.85 22.9274 29.9193 21.332C29.9892 19.7309 30.0057 19.2197 29.9979 15.1469C29.9901 11.0741 29.9718 10.5635 29.8959 8.96389C29.82 7.36429 29.5659 6.27799 29.1918 5.32429C28.8063 4.33819 28.2918 3.50329 27.4572 2.67079C26.6226 1.83829 25.785 1.32679 24.7971 0.946388C23.8425 0.577088 22.752 0.325388 21.1554 0.256388C19.5588 0.187388 19.0449 0.169688 14.9712 0.177488C10.8975 0.185288 10.3875 0.202688 8.78763 0.280688ZM8.96282 27.3971C7.50032 27.3335 6.70622 27.0905 6.17702 26.8871C5.47622 26.6171 4.97702 26.2907 4.44962 25.7684C3.92222 25.2461 3.59822 24.7451 3.32462 24.0458C3.11912 23.5166 2.87162 22.7234 2.80322 21.2609C2.72882 19.6802 2.71322 19.2056 2.70452 15.2009C2.69582 11.1962 2.71112 10.7222 2.78042 9.14089C2.84282 7.67959 3.08732 6.88459 3.29042 6.35569C3.56042 5.65399 3.88562 5.15569 4.40912 4.62859C4.93262 4.10149 5.43212 3.77689 6.13202 3.50329C6.66062 3.29689 7.45382 3.05149 8.91572 2.98189C10.4976 2.90689 10.9716 2.89189 14.9757 2.88319C18.9798 2.87449 19.455 2.88949 21.0375 2.95909C22.4988 3.02269 23.2941 3.26479 23.8224 3.46909C24.5235 3.73909 25.0224 4.06339 25.5495 4.58779C26.0766 5.11219 26.4015 5.60989 26.6751 6.31129C26.8818 6.83839 27.1272 7.63129 27.1962 9.09409C27.2715 10.676 27.2886 11.1503 27.2958 15.1541C27.303 19.1579 27.2889 19.6334 27.2196 21.2141C27.1557 22.6766 26.9133 23.471 26.7096 24.0008C26.4396 24.7013 26.1141 25.2008 25.5903 25.7276C25.0665 26.2544 24.5676 26.579 23.8674 26.8526C23.3394 27.0587 22.5453 27.3047 21.0846 27.3743C19.5027 27.4487 19.0287 27.4643 15.0231 27.473C11.0175 27.4817 10.545 27.4655 8.96312 27.3971M21.1911 7.15879C21.1917 7.51482 21.2979 7.86268 21.4962 8.15837C21.6945 8.45406 21.976 8.6843 22.3052 8.81997C22.6344 8.95564 22.9964 8.99065 23.3454 8.92057C23.6945 8.85048 24.015 8.67845 24.2662 8.42624C24.5175 8.17403 24.6884 7.85296 24.7572 7.50364C24.826 7.15432 24.7897 6.79244 24.6528 6.46377C24.5159 6.1351 24.2846 5.85441 23.9882 5.65718C23.6918 5.45996 23.3436 5.35508 22.9875 5.35579C22.5102 5.35674 22.0529 5.54722 21.716 5.88533C21.3791 6.22344 21.1903 6.6815 21.1911 7.15879ZM7.29812 15.1907C7.30652 19.4447 10.7613 22.8854 15.0144 22.8773C19.2675 22.8692 22.7106 19.4147 22.7025 15.1607C22.6944 10.9067 19.2387 7.46509 14.985 7.47349C10.7313 7.48189 7.29002 10.9373 7.29812 15.1907ZM9.99992 15.1853C9.99797 14.1964 10.2893 13.2291 10.8371 12.4057C11.3849 11.5824 12.1645 10.94 13.0774 10.5597C13.9903 10.1795 14.9955 10.0784 15.9658 10.2695C16.9361 10.4605 17.828 10.9349 18.5286 11.6328C19.2293 12.3307 19.7072 13.2207 19.9021 14.1902C20.0969 15.1598 19.9999 16.1653 19.6233 17.0797C19.2466 17.9941 18.6073 18.7763 17.7862 19.3273C16.965 19.8784 15.9988 20.1735 15.0099 20.1755C14.3533 20.1769 13.7028 20.0489 13.0956 19.7988C12.4884 19.5488 11.9365 19.1816 11.4712 18.7182C11.006 18.2548 10.6366 17.7043 10.3842 17.0981C10.1317 16.4919 10.0011 15.8419 9.99992 15.1853Z" fill="black"/>
</g>
<defs>
<clipPath id="clip0_10674_1244">
<rect width="30" height="30" fill="white" transform="translate(0 0.175537)"/>
</clipPath>
</defs>
</svg>
