<svg width="17" height="16" viewBox="0 0 17 16" fill="none" xmlns="http://www.w3.org/2000/svg">
<path d="M8.60671 7.24671C8.54004 7.24004 8.46004 7.24004 8.38671 7.24671C6.80004 7.19337 5.54004 5.89337 5.54004 4.29337C5.54004 2.66004 6.86004 1.33337 8.50004 1.33337C10.1334 1.33337 11.46 2.66004 11.46 4.29337C11.4534 5.89337 10.1934 7.19337 8.60671 7.24671Z" stroke="#292D32" stroke-width="1.5" stroke-linecap="round" stroke-linejoin="round"/>
<path d="M5.27348 9.70663C3.66014 10.7866 3.66014 12.5466 5.27348 13.62C7.10681 14.8466 10.1135 14.8466 11.9468 13.62C13.5601 12.54 13.5601 10.78 11.9468 9.70663C10.1201 8.48663 7.11348 8.48663 5.27348 9.70663Z" stroke="#292D32" stroke-width="1.5" stroke-linecap="round" stroke-linejoin="round"/>
</svg>
