<svg width="17" height="16" viewBox="0 0 17 16" fill="none" xmlns="http://www.w3.org/2000/svg">
<path d="M4.18795 12.4933C4.18795 12.4933 4.18129 12.4933 4.17462 12.4933L2.47461 12.4867C2.20128 12.4867 1.97461 12.26 1.97461 11.9867C1.97461 11.7133 2.20128 11.4867 2.47461 11.4867L4.17462 11.4933H4.18127C4.61461 11.4933 5.02129 11.28 5.26129 10.9133L9.52128 4.52665C9.94795 3.88665 10.6613 3.5 11.4346 3.5C11.4346 3.5 11.4413 3.5 11.448 3.5L14.4813 3.51335C14.7546 3.51335 14.9813 3.74001 14.9813 4.01335C14.9813 4.28668 14.7546 4.51335 14.4813 4.51335L11.448 4.5H11.4413C11.008 4.5 10.6013 4.71333 10.3613 5.08L6.10128 11.4667C5.67461 12.1133 4.96128 12.4933 4.18795 12.4933Z" fill="#292D32"/>
<path d="M13.1477 13.8199C13.0211 13.8199 12.8944 13.7733 12.7944 13.6733C12.6011 13.4799 12.6011 13.1599 12.7944 12.9666L14.1277 11.6333C14.3211 11.4399 14.6411 11.4399 14.8344 11.6333C15.0277 11.8266 15.0277 12.1466 14.8344 12.3399L13.5011 13.6733C13.4011 13.7733 13.2744 13.8199 13.1477 13.8199Z" fill="#292D32"/>
<path d="M6.40812 6.25335C6.25479 6.25335 6.10144 6.18001 6.00144 6.04668L5.28145 5.04668C5.03479 4.70668 4.6281 4.50668 4.22144 4.50668L2.48145 4.51336C2.17478 4.50669 1.98145 4.29336 1.98145 4.01336C1.98145 3.74002 2.20145 3.51336 2.48145 3.51336L4.22144 3.50668C4.2281 3.50668 4.22812 3.50668 4.23478 3.50668C4.97478 3.50668 5.66811 3.86668 6.10144 4.46001L6.82145 5.46001C6.98145 5.68668 6.93478 5.99334 6.70811 6.16C6.61478 6.22 6.51479 6.25335 6.40812 6.25335Z" fill="#292D32"/>
<path d="M11.3614 12.5C10.6548 12.5 9.97477 12.1666 9.54144 11.6066L8.7281 10.56C8.56144 10.34 8.60144 10.0266 8.81477 9.85994C9.03477 9.69327 9.3481 9.73328 9.51477 9.94661L10.3281 10.9933C10.5748 11.3133 10.9681 11.4733 11.3614 11.5L14.4748 11.4866C14.7481 11.4866 14.9748 11.7066 14.9748 11.9866C14.9748 12.2599 14.7548 12.4866 14.4748 12.4866L11.3614 12.5C11.3681 12.5 11.3614 12.5 11.3614 12.5Z" fill="#292D32"/>
<path d="M14.4811 4.51333C14.3544 4.51333 14.2277 4.46664 14.1277 4.36664L12.7944 3.03331C12.6011 2.83997 12.6011 2.51997 12.7944 2.32664C12.9877 2.13331 13.3077 2.13331 13.5011 2.32664L14.8344 3.65997C15.0277 3.85331 15.0277 4.17331 14.8344 4.36664C14.7344 4.46664 14.6077 4.51333 14.4811 4.51333Z" fill="#292D32"/>
</svg>
