<svg width="30" height="31" viewBox="0 0 30 31" fill="none" xmlns="http://www.w3.org/2000/svg">
<g clip-path="url(#clip0_10674_1239)">
<path d="M30 15.1756C30 6.89136 23.2843 0.175632 15 0.175632C6.71572 0.175632 0 6.89136 0 15.1756C0 22.6626 5.48528 28.8681 12.6562 29.9934V19.5116H8.84766V15.1756H12.6562V11.8709C12.6562 8.11157 14.8956 6.03501 18.322 6.03501C19.9631 6.03501 21.6797 6.32798 21.6797 6.32798V10.0194H19.7882C17.9249 10.0194 17.3438 11.1756 17.3438 12.3619V15.1756H21.5039L20.8389 19.5116H17.3438V29.9934C24.5147 28.8681 30 22.6626 30 15.1756Z" fill="#100F0D"/>
<path d="M20.8389 19.5115L21.5039 15.1755H17.3438V12.3618C17.3438 11.1755 17.9249 10.0193 19.7882 10.0193H21.6797V6.32788C21.6797 6.32788 19.9631 6.03491 18.322 6.03491C14.8956 6.03491 12.6563 8.11147 12.6563 11.8708V15.1755H8.84766V19.5115H12.6563V29.9933C13.4199 30.1131 14.2027 30.1755 15 30.1755C15.7973 30.1755 16.5801 30.1131 17.3438 29.9933V19.5115H20.8389Z" fill="white"/>
</g>
<defs>
<clipPath id="clip0_10674_1239">
<rect width="30" height="30" fill="white" transform="translate(0 0.175537)"/>
</clipPath>
</defs>
</svg>
