<svg width="17" height="17" viewBox="0 0 17 17" fill="none" xmlns="http://www.w3.org/2000/svg">
<path d="M14.4814 4.48665C12.2614 4.26665 10.0281 4.15332 7.80145 4.15332C6.48145 4.15332 5.16145 4.21999 3.84145 4.35332L2.48145 4.48665" stroke="#EF4444" stroke-width="1.5" stroke-linecap="round" stroke-linejoin="round"/>
<path d="M6.14844 3.81337L6.2951 2.94004C6.40177 2.30671 6.48177 1.83337 7.60844 1.83337H9.3551C10.4818 1.83337 10.5684 2.33337 10.6684 2.94671L10.8151 3.81337" stroke="#EF4444" stroke-width="1.5" stroke-linecap="round" stroke-linejoin="round"/>
<path d="M13.0484 6.59338L12.615 13.3067C12.5417 14.3534 12.4817 15.1667 10.6217 15.1667H6.34171C4.48171 15.1667 4.42171 14.3534 4.34837 13.3067L3.91504 6.59338" stroke="#EF4444" stroke-width="1.5" stroke-linecap="round" stroke-linejoin="round"/>
<path d="M7.36816 11.5H9.58816" stroke="#EF4444" stroke-width="1.5" stroke-linecap="round" stroke-linejoin="round"/>
<path d="M6.81445 8.83337H10.1478" stroke="#EF4444" stroke-width="1.5" stroke-linecap="round" stroke-linejoin="round"/>
</svg>
