<svg width="127" height="126" viewBox="0 0 127 126" fill="none" xmlns="http://www.w3.org/2000/svg">
<path d="M63.5 0C80.2086 0 96.2329 6.63748 108.048 18.4523C119.863 30.2671 126.5 46.2914 126.5 63C126.5 79.7086 119.863 95.7329 108.048 107.548C96.2329 119.363 80.2086 126 63.5 126C46.7914 126 30.7671 119.363 18.9523 107.548C7.13748 95.7329 0.5 79.7086 0.5 63C0.5 46.2914 7.13748 30.2671 18.9523 18.4523C30.7671 6.63748 46.7914 0 63.5 0ZM55.652 75.429L41.657 61.425C41.1553 60.9233 40.5597 60.5253 39.9041 60.2538C39.2486 59.9822 38.546 59.8425 37.8365 59.8425C37.127 59.8425 36.4244 59.9822 35.7689 60.2538C35.1133 60.5253 34.5177 60.9233 34.016 61.425C33.0027 62.4383 32.4335 63.8125 32.4335 65.2455C32.4335 66.6785 33.0027 68.0527 34.016 69.066L51.836 86.886C52.3363 87.3903 52.9314 87.7905 53.5872 88.0636C54.2429 88.3368 54.9462 88.4774 55.6565 88.4774C56.3668 88.4774 57.0701 88.3368 57.7258 88.0636C58.3816 87.7905 58.9767 87.3903 59.477 86.886L96.377 49.977C96.8854 49.4774 97.2899 48.882 97.5671 48.2253C97.8443 47.5686 97.9887 46.8634 97.992 46.1506C97.9953 45.4378 97.8574 44.7314 97.5864 44.0721C97.3153 43.4128 96.9164 42.8137 96.4127 42.3094C95.9089 41.805 95.3103 41.4054 94.6513 41.1336C93.9924 40.8617 93.2861 40.7231 92.5733 40.7255C91.8605 40.728 91.1552 40.8716 90.4981 41.148C89.8411 41.4244 89.2452 41.8282 88.745 42.336L55.652 75.429Z" fill="#14A800"/>
</svg>
